<?xml version="1.0" encoding="UTF-8"?>
<svg id="Capa_1" data-name="Capa 1" xmlns="http://www.w3.org/2000/svg" viewBox="0 0 1600 1600">
  <defs>
    <style>
      .cls-1 {
        fill: #fff;
      }

      .cls-2 {
        fill: #194973;
      }

      .cls-3 {
        fill: #71c648;
      }
    </style>
  </defs>
  <rect class="cls-3" x="0" y="0" width="1600" height="1600"/>
  <g>
    <rect class="cls-2" x="666.84" y="686.89" width="239.09" height="128.85" rx="64.42" ry="64.42"/>
    <path class="cls-1" d="m292.67,726.05c-2.18-7.68-6.35-22.15-28.85-22.15-13.07,0-32.3,8.58-32.3,44.84,0,23.04,9.25,43.77,32.3,43.77,15.06,0,25.59-8.4,28.85-24.12h27.22c-5.44,27.87-23.95,47.34-56.62,47.34-34.66,0-59.52-23.05-59.52-67.35s26.31-67.71,59.88-67.71c39.01,0,54.8,26.44,56.25,45.38h-27.22Z"/>
    <path class="cls-1" d="m382.32,815.74c-25.95,0-49.36-15.78-49.36-50.2s23.41-50.2,49.36-50.2,49.36,15.78,49.36,50.2-23.41,50.2-49.36,50.2Zm0-79.25c-19.6,0-23.23,16.85-23.23,29.04s3.63,29.05,23.23,29.05,23.23-16.85,23.23-29.05-3.63-29.04-23.23-29.04Z"/>
    <path class="cls-1" d="m537.66,815.74h-24.86v-14.55h-.36c-6.17,10.77-17.42,14.55-27.95,14.55-28.67,0-40.65-25.14-40.65-51.36,0-33.04,18.87-49.2,40.1-49.2,16.33,0,23.95,8.8,27.95,14.9h.36v-49.41h25.41v135.06Zm-46.82-20.8c16.15,0,22.5-13.38,22.5-27.67,0-15.37-4.36-30.92-21.78-30.92-16.15,0-21.59,14.28-21.59,29.47,0,11.39,4.54,29.11,20.87,29.11Z"/>
    <path class="cls-1" d="m643.28,785.36c-6.71,23.23-25.95,30.85-42.46,30.85-27.22,0-48.09-13.07-48.09-52.81,0-11.61,3.99-48.81,46.27-48.81,19.05,0,45.37,9.07,45.37,53.17v4.54h-66.23c.73,7.26,2.18,23.59,22.68,23.59,7.08,0,14.34-3.63,16.33-10.53h26.13Zm-25.04-29.58c-1.45-15.61-11.43-20.32-19.6-20.32-11.98,0-18.33,7.62-19.78,20.32h39.38Z"/>
    <path class="cls-1" d="m1015.69,816.21h-25.4v-60.12c0-7.26-.36-19.54-16.51-19.54-11.25,0-19.96,7.82-19.96,22.89v56.77h-25.41v-100.87h24.32v16.37h.36c3.45-5.96,10.71-17.12,29.03-17.12s33.57,11.35,33.57,33.13v68.49Z"/>
    <path class="cls-1" d="m1126.57,816.21h-25.4v-60.12c0-7.26-.36-19.54-16.51-19.54-11.25,0-19.96,7.82-19.96,22.89v56.77h-25.41v-100.87h24.32v16.37h.36c3.45-5.96,10.71-17.12,29.03-17.12s33.57,11.35,33.57,33.13v68.49Z"/>
    <path class="cls-1" d="m1233.1,785.56c-6.71,23.07-25.95,30.64-42.46,30.64-27.22,0-48.09-12.98-48.09-52.46,0-11.54,3.99-48.49,46.27-48.49,19.05,0,45.36,9.01,45.36,52.82v4.51h-66.23c.73,7.21,2.18,23.43,22.68,23.43,7.08,0,14.34-3.6,16.33-10.46h26.13Zm-25.04-29.38c-1.45-15.5-11.43-20.19-19.6-20.19-11.98,0-18.33,7.57-19.78,20.19h39.38Z"/>
    <path class="cls-1" d="m1334.18,778.71c-.91,9.91-8.71,37.49-44.09,37.49s-44.64-27.58-44.64-47.77c0-31,13.61-53.18,46.27-53.18,15.24,0,40.28,6.85,42.64,36.77h-25.77c-1.09-6.31-5.08-16.22-16.88-15.5-15.97,0-20.14,15.86-20.14,27.76,0,10.45.36,31.18,19.6,31.18,12.88,0,17.24-12.26,17.24-16.76h25.77Z"/>
    <path class="cls-1" d="m1380.46,717.13h15.79v18.15h-15.79v52.44c0,5.62.18,7.8,10.53,7.8,1.63,0,3.45-.18,5.26-.36v19.23c-3.99.18-7.98.36-11.98.36h-3.27c-21.96,0-25.95-8.35-25.95-20.87v-58.61h-13.06v-18.15h13.06v-26.13h25.41v26.13Z"/>
    <circle class="cls-3" cx="840.05" cy="750.77" r="54.83"/>
    <g>
      <path class="cls-1" d="m242.84,893.64c-.61,5.26-2.56,9.32-5.82,12.18-3.27,2.86-7.61,4.29-13.03,4.29-5.87,0-10.58-2.11-14.12-6.32-3.54-4.21-5.31-9.85-5.31-16.91v-4.78c0-4.62.82-8.69,2.48-12.19,1.65-3.51,3.99-6.2,7.02-8.08,3.03-1.88,6.53-2.82,10.52-2.82,5.28,0,9.52,1.47,12.71,4.42,3.19,2.95,5.04,7.03,5.57,12.24h-6.59c-.57-3.97-1.81-6.85-3.71-8.63-1.9-1.78-4.56-2.67-7.98-2.67-4.19,0-7.47,1.55-9.85,4.65-2.38,3.1-3.57,7.51-3.57,13.23v4.82c0,5.4,1.13,9.7,3.38,12.89,2.25,3.19,5.41,4.79,9.46,4.79,3.64,0,6.44-.82,8.39-2.48,1.95-1.65,3.24-4.53,3.88-8.62h6.59Z"/>
      <path class="cls-1" d="m249.12,890.6c0-3.62.71-6.88,2.13-9.77,1.42-2.89,3.4-5.12,5.94-6.69,2.54-1.57,5.44-2.36,8.69-2.36,5.03,0,9.1,1.74,12.21,5.23s4.66,8.12,4.66,13.9v.44c0,3.6-.69,6.83-2.07,9.68-1.38,2.86-3.35,5.08-5.91,6.68-2.56,1.59-5.5,2.39-8.83,2.39-5.01,0-9.07-1.74-12.18-5.23-3.11-3.48-4.66-8.09-4.66-13.83v-.44Zm6.35.75c0,4.1.95,7.39,2.85,9.87,1.9,2.48,4.45,3.72,7.63,3.72s5.76-1.26,7.65-3.77c1.89-2.52,2.83-6.04,2.83-10.57,0-4.05-.96-7.34-2.89-9.85-1.92-2.52-4.48-3.77-7.67-3.77s-5.64,1.24-7.55,3.72-2.87,6.03-2.87,10.66Z"/>
      <path class="cls-1" d="m296.67,872.46l.2,4.65c2.82-3.55,6.51-5.33,11.07-5.33,7.81,0,11.75,4.41,11.82,13.22v24.42h-6.32v-24.46c-.02-2.66-.63-4.63-1.83-5.91s-3.06-1.91-5.58-1.91c-2.05,0-3.85.55-5.4,1.64-1.55,1.09-2.76,2.53-3.62,4.3v26.33h-6.32v-36.96h5.98Z"/>
      <path class="cls-1" d="m344.62,910.1c-5.01,0-9.09-1.64-12.23-4.94-3.14-3.29-4.71-7.69-4.71-13.2v-1.16c0-3.67.7-6.94,2.1-9.82s3.36-5.14,5.87-6.76c2.52-1.63,5.24-2.44,8.18-2.44,4.8,0,8.54,1.58,11.2,4.75,2.66,3.16,4,7.7,4,13.59v2.63h-25.04c.09,3.64,1.16,6.59,3.19,8.83,2.04,2.24,4.63,3.36,7.77,3.36,2.23,0,4.12-.46,5.67-1.37,1.55-.91,2.9-2.12,4.06-3.62l3.86,3.01c-3.1,4.76-7.74,7.14-13.94,7.14Zm-.79-33.13c-2.55,0-4.69.93-6.42,2.78-1.73,1.86-2.8,4.46-3.21,7.8h18.51v-.48c-.18-3.21-1.05-5.7-2.6-7.46-1.55-1.76-3.64-2.65-6.28-2.65Z"/>
      <path class="cls-1" d="m381.17,904.95c2.25,0,4.22-.68,5.91-2.05,1.68-1.37,2.62-3.07,2.8-5.12h5.98c-.11,2.12-.84,4.13-2.19,6.05-1.34,1.91-3.14,3.44-5.38,4.58-2.24,1.14-4.62,1.71-7.12,1.71-5.03,0-9.03-1.68-12.01-5.04-2.97-3.36-4.46-7.95-4.46-13.78v-1.06c0-3.6.66-6.8,1.98-9.6,1.32-2.8,3.22-4.97,5.69-6.52,2.47-1.55,5.39-2.32,8.76-2.32,4.14,0,7.59,1.24,10.33,3.72,2.74,2.48,4.21,5.7,4.39,9.67h-5.98c-.18-2.39-1.09-4.35-2.72-5.89-1.63-1.54-3.64-2.31-6.03-2.31-3.21,0-5.7,1.16-7.46,3.47-1.76,2.31-2.65,5.65-2.65,10.02v1.2c0,4.26.88,7.54,2.63,9.84,1.75,2.3,4.26,3.45,7.51,3.45Z"/>
      <path class="cls-1" d="m411.53,863.51v8.95h6.9v4.88h-6.9v22.95c0,1.48.31,2.59.92,3.33s1.66,1.11,3.14,1.11c.73,0,1.73-.14,3.01-.41v5.09c-1.66.45-3.28.68-4.85.68-2.82,0-4.95-.85-6.39-2.56-1.43-1.71-2.15-4.13-2.15-7.28v-22.92h-6.73v-4.88h6.73v-8.95h6.32Z"/>
      <path class="cls-1" d="m448.63,909.42c-.36-.73-.66-2.03-.89-3.89-2.94,3.05-6.44,4.58-10.52,4.58-3.64,0-6.63-1.03-8.97-3.09-2.33-2.06-3.5-4.67-3.5-7.84,0-3.85,1.46-6.84,4.39-8.97,2.93-2.13,7.04-3.19,12.35-3.19h6.15v-2.9c0-2.21-.66-3.97-1.98-5.28-1.32-1.31-3.27-1.96-5.84-1.96-2.25,0-4.14.57-5.67,1.71-1.53,1.14-2.29,2.52-2.29,4.13h-6.35c0-1.84.65-3.63,1.96-5.35,1.31-1.72,3.09-3.08,5.33-4.08,2.24-1,4.71-1.5,7.39-1.5,4.26,0,7.59,1.06,10.01,3.19,2.41,2.13,3.67,5.06,3.76,8.8v17.01c0,3.39.43,6.09,1.3,8.09v.55h-6.63Zm-10.49-4.82c1.98,0,3.86-.51,5.64-1.54s3.06-2.36,3.86-4v-7.58h-4.95c-7.74,0-11.61,2.27-11.61,6.8,0,1.98.66,3.53,1.98,4.65,1.32,1.12,3.02,1.67,5.09,1.67Z"/>
      <path class="cls-1" d="m469.84,872.46l.2,4.65c2.82-3.55,6.51-5.33,11.07-5.33,7.81,0,11.75,4.41,11.82,13.22v24.42h-6.32v-24.46c-.02-2.66-.63-4.63-1.83-5.91s-3.06-1.91-5.58-1.91c-2.05,0-3.85.55-5.4,1.64-1.55,1.09-2.76,2.53-3.62,4.3v26.33h-6.32v-36.96h5.98Z"/>
      <path class="cls-1" d="m500.92,890.63c0-5.67,1.34-10.23,4.03-13.68,2.69-3.45,6.2-5.17,10.55-5.17s7.75,1.48,10.28,4.44v-19.26h6.32v52.46h-5.81l-.31-3.96c-2.53,3.1-6.05,4.65-10.55,4.65s-7.77-1.75-10.47-5.26-4.05-8.08-4.05-13.73v-.48Zm6.32.72c0,4.19.87,7.47,2.6,9.84,1.73,2.37,4.12,3.55,7.17,3.55,4.01,0,6.93-1.8,8.78-5.4v-16.98c-1.89-3.48-4.79-5.23-8.71-5.23-3.1,0-5.51,1.2-7.24,3.59-1.73,2.39-2.6,5.93-2.6,10.62Z"/>
      <path class="cls-1" d="m540.23,890.6c0-3.62.71-6.88,2.13-9.77,1.42-2.89,3.4-5.12,5.94-6.69,2.54-1.57,5.44-2.36,8.69-2.36,5.03,0,9.1,1.74,12.21,5.23s4.66,8.12,4.66,13.9v.44c0,3.6-.69,6.83-2.07,9.68-1.38,2.86-3.35,5.08-5.91,6.68s-5.5,2.39-8.83,2.39c-5.01,0-9.07-1.74-12.18-5.23-3.11-3.48-4.66-8.09-4.66-13.83v-.44Zm6.35.75c0,4.1.95,7.39,2.85,9.87,1.9,2.48,4.45,3.72,7.63,3.72s5.76-1.26,7.65-3.77c1.89-2.52,2.83-6.04,2.83-10.57,0-4.05-.96-7.34-2.89-9.85-1.92-2.52-4.48-3.77-7.67-3.77s-5.64,1.24-7.55,3.72c-1.91,2.48-2.87,6.03-2.87,10.66Z"/>
      <path class="cls-1" d="m599.15,862.66c0-1.02.31-1.89.94-2.6.63-.71,1.55-1.06,2.78-1.06s2.16.35,2.8,1.06c.64.71.96,1.57.96,2.6s-.32,1.88-.96,2.56c-.64.68-1.57,1.02-2.8,1.02s-2.16-.34-2.78-1.02c-.63-.68-.94-1.54-.94-2.56Zm6.83,46.76h-6.32v-36.96h6.32v36.96Z"/>
      <path class="cls-1" d="m614.56,890.63c0-5.67,1.34-10.23,4.03-13.68,2.69-3.45,6.2-5.17,10.55-5.17s7.75,1.48,10.28,4.44v-19.26h6.32v52.46h-5.81l-.31-3.96c-2.53,3.1-6.05,4.65-10.55,4.65s-7.77-1.75-10.47-5.26c-2.7-3.51-4.05-8.08-4.05-13.73v-.48Zm6.32.72c0,4.19.87,7.47,2.6,9.84,1.73,2.37,4.12,3.55,7.17,3.55,4.01,0,6.93-1.8,8.78-5.4v-16.98c-1.89-3.48-4.79-5.23-8.71-5.23-3.1,0-5.51,1.2-7.24,3.59-1.73,2.39-2.6,5.93-2.6,10.62Z"/>
      <path class="cls-1" d="m670.88,910.1c-5.01,0-9.09-1.64-12.23-4.94-3.14-3.29-4.71-7.69-4.71-13.2v-1.16c0-3.67.7-6.94,2.1-9.82s3.36-5.14,5.87-6.76c2.52-1.63,5.24-2.44,8.18-2.44,4.8,0,8.54,1.58,11.2,4.75s4,7.7,4,13.59v2.63h-25.04c.09,3.64,1.16,6.59,3.19,8.83,2.04,2.24,4.63,3.36,7.77,3.36,2.23,0,4.12-.46,5.67-1.37,1.55-.91,2.9-2.12,4.06-3.62l3.86,3.01c-3.1,4.76-7.74,7.14-13.94,7.14Zm-.79-33.13c-2.55,0-4.69.93-6.42,2.78-1.73,1.86-2.8,4.46-3.21,7.8h18.51v-.48c-.18-3.21-1.05-5.7-2.6-7.46-1.55-1.76-3.64-2.65-6.28-2.65Z"/>
      <path class="cls-1" d="m715.42,909.42c-.36-.73-.66-2.03-.89-3.89-2.94,3.05-6.44,4.58-10.52,4.58-3.64,0-6.63-1.03-8.97-3.09-2.33-2.06-3.5-4.67-3.5-7.84,0-3.85,1.46-6.84,4.39-8.97,2.93-2.13,7.04-3.19,12.35-3.19h6.15v-2.9c0-2.21-.66-3.97-1.98-5.28-1.32-1.31-3.27-1.96-5.84-1.96-2.25,0-4.14.57-5.67,1.71-1.53,1.14-2.29,2.52-2.29,4.13h-6.35c0-1.84.65-3.63,1.96-5.35,1.31-1.72,3.09-3.08,5.33-4.08,2.24-1,4.71-1.5,7.39-1.5,4.26,0,7.59,1.06,10.01,3.19,2.41,2.13,3.67,5.06,3.76,8.8v17.01c0,3.39.43,6.09,1.3,8.09v.55h-6.63Zm-10.49-4.82c1.98,0,3.86-.51,5.64-1.54s3.06-2.36,3.86-4v-7.58h-4.95c-7.74,0-11.61,2.27-11.61,6.8,0,1.98.66,3.53,1.98,4.65,1.32,1.12,3.02,1.67,5.09,1.67Z"/>
      <path class="cls-1" d="m752.17,899.62c0-1.71-.64-3.03-1.93-3.98-1.29-.94-3.53-1.76-6.73-2.44-3.2-.68-5.74-1.5-7.62-2.46s-3.27-2.1-4.17-3.42c-.9-1.32-1.35-2.89-1.35-4.71,0-3.03,1.28-5.59,3.84-7.69s5.83-3.14,9.82-3.14c4.19,0,7.59,1.08,10.2,3.24,2.61,2.16,3.91,4.93,3.91,8.3h-6.35c0-1.73-.73-3.22-2.2-4.47-1.47-1.25-3.32-1.88-5.55-1.88s-4.1.5-5.4,1.5-1.95,2.31-1.95,3.93c0,1.53.6,2.68,1.81,3.45,1.21.77,3.39,1.51,6.54,2.22,3.15.71,5.71,1.55,7.67,2.53,1.96.98,3.41,2.16,4.35,3.54.94,1.38,1.42,3.06,1.42,5.04,0,3.3-1.32,5.95-3.96,7.94-2.64,1.99-6.07,2.99-10.28,2.99-2.96,0-5.58-.52-7.86-1.57-2.28-1.05-4.06-2.51-5.35-4.39-1.29-1.88-1.93-3.91-1.93-6.1h6.32c.11,2.12.96,3.8,2.54,5.04,1.58,1.24,3.67,1.86,6.27,1.86,2.39,0,4.31-.48,5.76-1.45,1.45-.97,2.17-2.26,2.17-3.88Z"/>
      <path class="cls-1" d="m766.52,919.33l-3.59-2.46c2.14-2.98,3.26-6.06,3.35-9.22v-5.7h6.18v4.95c0,2.3-.56,4.6-1.69,6.9-1.13,2.3-2.54,4.14-4.25,5.53Z"/>
      <path class="cls-1" d="m812.59,904.95c2.25,0,4.22-.68,5.91-2.05,1.68-1.37,2.62-3.07,2.8-5.12h5.98c-.11,2.12-.84,4.13-2.19,6.05-1.34,1.91-3.14,3.44-5.38,4.58-2.24,1.14-4.62,1.71-7.12,1.71-5.03,0-9.03-1.68-12.01-5.04s-4.46-7.95-4.46-13.78v-1.06c0-3.6.66-6.8,1.98-9.6,1.32-2.8,3.22-4.97,5.69-6.52,2.47-1.55,5.39-2.32,8.76-2.32,4.14,0,7.59,1.24,10.33,3.72,2.74,2.48,4.21,5.7,4.39,9.67h-5.98c-.18-2.39-1.09-4.35-2.72-5.89-1.63-1.54-3.64-2.31-6.03-2.31-3.21,0-5.7,1.16-7.46,3.47-1.76,2.31-2.65,5.65-2.65,10.02v1.2c0,4.26.88,7.54,2.63,9.84,1.75,2.3,4.26,3.45,7.51,3.45Z"/>
      <path class="cls-1" d="m852.25,878.13c-.96-.16-1.99-.24-3.11-.24-4.14,0-6.96,1.76-8.44,5.29v26.23h-6.32v-36.96h6.15l.1,4.27c2.07-3.3,5.01-4.95,8.81-4.95,1.23,0,2.16.16,2.8.48v5.87Z"/>
      <path class="cls-1" d="m872.74,910.1c-5.01,0-9.09-1.64-12.23-4.94-3.14-3.29-4.71-7.69-4.71-13.2v-1.16c0-3.67.7-6.94,2.1-9.82s3.36-5.14,5.87-6.76c2.52-1.63,5.24-2.44,8.18-2.44,4.8,0,8.54,1.58,11.2,4.75,2.66,3.16,4,7.7,4,13.59v2.63h-25.04c.09,3.64,1.15,6.59,3.19,8.83,2.04,2.24,4.63,3.36,7.77,3.36,2.23,0,4.12-.46,5.67-1.37,1.55-.91,2.9-2.12,4.06-3.62l3.86,3.01c-3.1,4.76-7.74,7.14-13.94,7.14Zm-.79-33.13c-2.55,0-4.69.93-6.42,2.78-1.73,1.86-2.8,4.46-3.21,7.8h18.51v-.48c-.18-3.21-1.05-5.7-2.6-7.46-1.55-1.76-3.64-2.65-6.28-2.65Z"/>
      <path class="cls-1" d="m917.28,909.42c-.37-.73-.66-2.03-.89-3.89-2.94,3.05-6.44,4.58-10.52,4.58-3.64,0-6.63-1.03-8.97-3.09-2.33-2.06-3.5-4.67-3.5-7.84,0-3.85,1.46-6.84,4.39-8.97,2.93-2.13,7.04-3.19,12.35-3.19h6.15v-2.9c0-2.21-.66-3.97-1.98-5.28-1.32-1.31-3.27-1.96-5.84-1.96-2.25,0-4.14.57-5.67,1.71-1.53,1.14-2.29,2.52-2.29,4.13h-6.35c0-1.84.65-3.63,1.96-5.35,1.31-1.72,3.08-3.08,5.33-4.08,2.24-1,4.71-1.5,7.39-1.5,4.26,0,7.59,1.06,10.01,3.19,2.41,2.13,3.67,5.06,3.76,8.8v17.01c0,3.39.43,6.09,1.3,8.09v.55h-6.63Zm-10.49-4.82c1.98,0,3.86-.51,5.64-1.54s3.06-2.36,3.86-4v-7.58h-4.95c-7.74,0-11.61,2.27-11.61,6.8,0,1.98.66,3.53,1.98,4.65,1.32,1.12,3.02,1.67,5.09,1.67Z"/>
      <path class="cls-1" d="m938.49,872.46l.2,4.65c2.82-3.55,6.51-5.33,11.07-5.33,7.81,0,11.75,4.41,11.82,13.22v24.42h-6.32v-24.46c-.02-2.66-.63-4.63-1.83-5.91s-3.06-1.91-5.58-1.91c-2.05,0-3.85.55-5.4,1.64-1.55,1.09-2.76,2.53-3.62,4.3v26.33h-6.32v-36.96h5.98Z"/>
      <path class="cls-1" d="m969.57,890.63c0-5.67,1.34-10.23,4.03-13.68s6.2-5.17,10.55-5.17,7.75,1.48,10.28,4.44v-19.26h6.32v52.46h-5.81l-.31-3.96c-2.53,3.1-6.05,4.65-10.55,4.65s-7.77-1.75-10.47-5.26-4.05-8.08-4.05-13.73v-.48Zm6.32.72c0,4.19.87,7.47,2.6,9.84s4.12,3.55,7.17,3.55c4.01,0,6.93-1.8,8.78-5.4v-16.98c-1.89-3.48-4.79-5.23-8.71-5.23-3.1,0-5.51,1.2-7.24,3.59s-2.6,5.93-2.6,10.62Z"/>
      <path class="cls-1" d="m1008.89,890.6c0-3.62.71-6.88,2.13-9.77,1.42-2.89,3.4-5.12,5.94-6.69,2.54-1.57,5.44-2.36,8.69-2.36,5.03,0,9.1,1.74,12.21,5.23,3.11,3.48,4.66,8.12,4.66,13.9v.44c0,3.6-.69,6.83-2.07,9.68-1.38,2.86-3.35,5.08-5.91,6.68-2.56,1.59-5.5,2.39-8.83,2.39-5.01,0-9.07-1.74-12.18-5.23-3.11-3.48-4.66-8.09-4.66-13.83v-.44Zm6.35.75c0,4.1.95,7.39,2.85,9.87s4.45,3.72,7.63,3.72,5.76-1.26,7.65-3.77c1.89-2.52,2.83-6.04,2.83-10.57,0-4.05-.96-7.34-2.89-9.85s-4.48-3.77-7.67-3.77-5.64,1.24-7.55,3.72c-1.91,2.48-2.87,6.03-2.87,10.66Z"/>
      <path class="cls-1" d="m1089.29,899.62c0-1.71-.64-3.03-1.93-3.98s-3.53-1.76-6.73-2.44-5.74-1.5-7.62-2.46-3.27-2.1-4.17-3.42-1.35-2.89-1.35-4.71c0-3.03,1.28-5.59,3.84-7.69s5.84-3.14,9.82-3.14c4.19,0,7.59,1.08,10.2,3.24s3.91,4.93,3.91,8.3h-6.35c0-1.73-.73-3.22-2.2-4.47s-3.32-1.88-5.55-1.88-4.1.5-5.4,1.5-1.95,2.31-1.95,3.93c0,1.53.6,2.68,1.81,3.45s3.39,1.51,6.54,2.22c3.15.71,5.71,1.55,7.67,2.53,1.96.98,3.41,2.16,4.35,3.54s1.42,3.06,1.42,5.04c0,3.3-1.32,5.95-3.96,7.94s-6.07,2.99-10.28,2.99c-2.96,0-5.58-.52-7.86-1.57s-4.06-2.51-5.35-4.39-1.93-3.91-1.93-6.1h6.32c.11,2.12.96,3.8,2.54,5.04,1.58,1.24,3.67,1.86,6.27,1.86,2.39,0,4.31-.48,5.76-1.45s2.17-2.26,2.17-3.88Z"/>
      <path class="cls-1" d="m1102.16,890.6c0-3.62.71-6.88,2.13-9.77s3.4-5.12,5.94-6.69,5.44-2.36,8.69-2.36c5.03,0,9.1,1.74,12.21,5.23,3.11,3.48,4.66,8.12,4.66,13.9v.44c0,3.6-.69,6.83-2.07,9.68s-3.35,5.08-5.91,6.68c-2.56,1.59-5.5,2.39-8.83,2.39-5.01,0-9.07-1.74-12.18-5.23s-4.66-8.09-4.66-13.83v-.44Zm6.35.75c0,4.1.95,7.39,2.85,9.87s4.45,3.72,7.63,3.72,5.76-1.26,7.65-3.77c1.89-2.52,2.83-6.04,2.83-10.57,0-4.05-.96-7.34-2.89-9.85s-4.48-3.77-7.67-3.77-5.64,1.24-7.55,3.72-2.87,6.03-2.87,10.66Z"/>
      <path class="cls-1" d="m1150.6,909.42h-6.32v-52.46h6.32v52.46Z"/>
      <path class="cls-1" d="m1183.52,905.77c-2.46,2.89-6.07,4.34-10.83,4.34-3.94,0-6.94-1.14-9-3.43s-3.1-5.68-3.13-10.16v-24.05h6.32v23.87c0,5.6,2.28,8.4,6.83,8.4,4.83,0,8.04-1.8,9.63-5.4v-26.88h6.32v36.96h-6.01l-.14-3.65Z"/>
      <path class="cls-1" d="m1214.09,904.95c2.25,0,4.22-.68,5.91-2.05,1.69-1.37,2.62-3.07,2.8-5.12h5.98c-.11,2.12-.84,4.13-2.19,6.05-1.34,1.91-3.14,3.44-5.38,4.58s-4.62,1.71-7.12,1.71c-5.03,0-9.03-1.68-12.01-5.04-2.97-3.36-4.46-7.95-4.46-13.78v-1.06c0-3.6.66-6.8,1.98-9.6,1.32-2.8,3.22-4.97,5.69-6.52s5.39-2.32,8.76-2.32c4.14,0,7.59,1.24,10.33,3.72s4.21,5.7,4.39,9.67h-5.98c-.18-2.39-1.09-4.35-2.72-5.89-1.63-1.54-3.64-2.31-6.03-2.31-3.21,0-5.7,1.16-7.46,3.47s-2.65,5.65-2.65,10.02v1.2c0,4.26.88,7.54,2.63,9.84,1.75,2.3,4.26,3.45,7.51,3.45Z"/>
      <path class="cls-1" d="m1235.92,862.66c0-1.02.31-1.89.94-2.6s1.55-1.06,2.78-1.06,2.16.35,2.8,1.06.96,1.57.96,2.6-.32,1.88-.96,2.56-1.57,1.02-2.8,1.02-2.16-.34-2.78-1.02-.94-1.54-.94-2.56Zm6.83,46.76h-6.32v-36.96h6.32v36.96Z"/>
      <path class="cls-1" d="m1251.19,890.6c0-3.62.71-6.88,2.13-9.77s3.4-5.12,5.94-6.69c2.54-1.57,5.44-2.36,8.69-2.36,5.03,0,9.1,1.74,12.21,5.23s4.66,8.12,4.66,13.9v.44c0,3.6-.69,6.83-2.07,9.68-1.38,2.86-3.35,5.08-5.91,6.68s-5.5,2.39-8.83,2.39c-5.01,0-9.07-1.74-12.18-5.23-3.11-3.48-4.66-8.09-4.66-13.83v-.44Zm6.35.75c0,4.1.95,7.39,2.85,9.87,1.9,2.48,4.45,3.72,7.63,3.72s5.76-1.26,7.65-3.77,2.83-6.04,2.83-10.57c0-4.05-.96-7.34-2.89-9.85-1.92-2.52-4.48-3.77-7.67-3.77s-5.64,1.24-7.55,3.72-2.87,6.03-2.87,10.66Z"/>
      <path class="cls-1" d="m1298.73,872.46l.2,4.65c2.82-3.55,6.51-5.33,11.07-5.33,7.81,0,11.75,4.41,11.82,13.22v24.42h-6.32v-24.46c-.02-2.66-.63-4.63-1.83-5.91s-3.06-1.91-5.58-1.91c-2.05,0-3.85.55-5.4,1.64s-2.75,2.53-3.62,4.3v26.33h-6.32v-36.96h5.98Z"/>
      <path class="cls-1" d="m1346.69,910.1c-5.01,0-9.09-1.64-12.23-4.94-3.14-3.29-4.71-7.69-4.71-13.2v-1.16c0-3.67.7-6.94,2.1-9.82s3.36-5.14,5.87-6.76c2.52-1.63,5.24-2.44,8.18-2.44,4.8,0,8.54,1.58,11.2,4.75s4,7.7,4,13.59v2.63h-25.04c.09,3.64,1.16,6.59,3.19,8.83s4.63,3.36,7.77,3.36c2.23,0,4.12-.46,5.67-1.37s2.9-2.12,4.06-3.62l3.86,3.01c-3.1,4.76-7.74,7.14-13.94,7.14Zm-.79-33.13c-2.55,0-4.69.93-6.42,2.78s-2.8,4.46-3.21,7.8h18.51v-.48c-.18-3.21-1.05-5.7-2.6-7.46s-3.64-2.65-6.28-2.65Z"/>
      <path class="cls-1" d="m1389.93,899.62c0-1.71-.64-3.03-1.93-3.98s-3.53-1.76-6.73-2.44-5.74-1.5-7.62-2.46-3.27-2.1-4.17-3.42-1.35-2.89-1.35-4.71c0-3.03,1.28-5.59,3.84-7.69s5.84-3.14,9.82-3.14c4.19,0,7.59,1.08,10.2,3.24s3.91,4.93,3.91,8.3h-6.35c0-1.73-.73-3.22-2.2-4.47-1.47-1.25-3.32-1.88-5.55-1.88s-4.1.5-5.4,1.5-1.95,2.31-1.95,3.93c0,1.53.6,2.68,1.81,3.45s3.39,1.51,6.54,2.22c3.15.71,5.71,1.55,7.67,2.53s3.41,2.16,4.35,3.54,1.42,3.06,1.42,5.04c0,3.3-1.32,5.95-3.96,7.94-2.64,1.99-6.07,2.99-10.28,2.99-2.96,0-5.58-.52-7.86-1.57s-4.06-2.51-5.35-4.39-1.93-3.91-1.93-6.1h6.32c.11,2.12.96,3.8,2.54,5.04s3.67,1.86,6.27,1.86c2.39,0,4.31-.48,5.76-1.45s2.17-2.26,2.17-3.88Z"/>
    </g>
  </g>
</svg>